<svg xmlns="http://www.w3.org/2000/svg" width="27" height="26" fill="none" viewBox="0 0 27 26"><g clip-path="url(#clip0_1_271)"><path fill="#07f" d="M0 12.48C0 6.59685 0 3.65531 1.89795 1.82765C3.7959 0 6.85058 0 12.96 0H14.04C20.1494 0 23.2041 0 25.1021 1.82765C27 3.65531 27 6.59685 27 12.48V13.52C27 19.4032 27 22.3447 25.1021 24.1724C23.2041 26 20.1494 26 14.04 26H12.96C6.85058 26 3.7959 26 1.89795 24.1724C0 22.3447 0 19.4032 0 13.52V12.48Z"/><path fill="#fff" d="M14.32 18.7198C8.04706 18.7198 4.46915 14.6207 4.32007 7.7998H7.46226C7.56547 12.8062 9.88191 14.9268 11.7168 15.364V7.7998H14.6756V12.1175C16.4875 11.9317 18.3909 9.96413 19.0331 7.7998H21.9919C21.4988 10.467 19.4346 12.4345 17.9667 13.2434C19.4346 13.8993 21.7856 15.6154 22.6801 18.7198H19.4231C18.7236 16.6429 16.9806 15.0361 14.6756 14.8175V18.7198H14.32Z"/></g><defs><clipPath id="clip0_1_271"><path fill="#fff" d="M0 0H27V26H0z"/></clipPath></defs></svg>