<svg width="30" height="44" viewBox="0 0 30 44" fill="none" xmlns="http://www.w3.org/2000/svg">
<rect x="0.5" y="0.5" width="29" height="43" rx="14.5" fill="white"/>
<rect x="0.5" y="0.5" width="29" height="43" rx="14.5" stroke="#1252DA"/>
<path d="M15.7071 9.29289C15.3166 8.90237 14.6834 8.90237 14.2929 9.29289L7.92893 15.6569C7.53841 16.0474 7.53841 16.6805 7.92893 17.0711C8.31946 17.4616 8.95262 17.4616 9.34315 17.0711L15 11.4142L20.6569 17.0711C21.0474 17.4616 21.6805 17.4616 22.0711 17.0711C22.4616 16.6805 22.4616 16.0474 22.0711 15.6569L15.7071 9.29289ZM15 34L16 34L16 10L15 10L14 10L14 34L15 34Z" fill="#1252DA"/>
</svg>
