<svg xmlns="http://www.w3.org/2000/svg" width="20" height="20" fill="none" viewBox="0 0 20 20"><path fill="#1252da" fill-rule="evenodd" d="M12.911 5.779C13.171 6.006 13.198 6.401 12.971 6.661L6.423 14.161C6.305 14.297 6.133 14.375 5.953 14.375 5.772 14.375 5.6 14.297 5.482 14.161L2.863 11.161C2.636 10.901 2.662 10.506 2.922 10.279 3.183 10.052 3.577 10.079 3.804 10.339L5.953 12.8 12.029 5.839C12.256 5.579 12.651 5.552 12.911 5.779ZM17.098 5.85C17.348 6.088 17.358 6.483 17.12 6.733L9.977 14.233C9.85 14.366 9.672 14.436 9.49 14.426 9.307 14.416 9.138 14.326 9.027 14.181L8.67 13.712C8.461 13.437 8.514 13.045 8.788 12.836 9.024 12.657 9.347 12.67 9.566 12.852L16.214 5.871C16.453 5.621 16.848 5.611 17.098 5.85Z" clip-rule="evenodd"/></svg>