<svg xmlns="http://www.w3.org/2000/svg" width="29" height="29" fill="none" viewBox="0 0 29 29"><path fill="#fff" fill-rule="evenodd" d="M18.721 8.38C19.098 8.709 19.137 9.281 18.808 9.659L9.314 20.534C9.141 20.731 8.893 20.844 8.631 20.844 8.369 20.844 8.12 20.731 7.948 20.534L4.151 16.183C3.821 15.807 3.86 15.234 4.237 14.905 4.614 14.576 5.187 14.615 5.516 14.992L8.631 18.56 17.442 8.467C17.771 8.089 18.344 8.051 18.721 8.38ZM24.792 8.482C25.154 8.827 25.168 9.401 24.823 9.763L14.466 20.638C14.283 20.83 14.025 20.933 13.76 20.918 13.494 20.903 13.249 20.773 13.088 20.562L12.571 19.882C12.268 19.484 12.345 18.916 12.743 18.612 13.085 18.352 13.553 18.372 13.87 18.635L23.511 8.513C23.856 8.151 24.429 8.137 24.792 8.482Z" clip-rule="evenodd"/></svg>