<svg xmlns="http://www.w3.org/2000/svg" width="30" height="30" fill="none" viewBox="0 0 30 30"><path stroke="#fff" stroke-width="1.23333" d="M21.8387 16.9056L25.1047 20.1716C25.5439 20.6108 25.5439 21.3229 25.1047 21.7621C22.7303 24.1365 18.9712 24.4037 16.2849 22.3889L14.3419 20.9316C12.1915 19.3189 10.2813 17.4086 8.66852 15.2583L7.21126 13.3153C5.19649 10.6289 5.46363 6.86985 7.83807 4.49541C8.27725 4.05623 8.98931 4.05622 9.4285 4.49541L12.6945 7.76143C13.1762 8.24308 13.1762 9.02398 12.6945 9.50563L11.4351 10.765C11.235 10.9652 11.1853 11.271 11.3119 11.5241C12.7755 14.4512 15.1489 16.8247 18.076 18.2882C18.3292 18.4148 18.635 18.3652 18.8351 18.165L20.0945 16.9056C20.5762 16.424 21.3571 16.424 21.8387 16.9056Z"/></svg>