<svg xmlns="http://www.w3.org/2000/svg" width="40" height="40" fill="none" viewBox="0 0 40 40"><path stroke="#000" stroke-width="1.66667" d="M29.5118 22.8452L33.9254 27.2587C34.5189 27.8522 34.5189 28.8145 33.9254 29.4079C30.7167 32.6166 25.6369 32.9777 22.0066 30.255L19.381 28.2857C16.4751 26.1063 13.8937 23.5249 11.7143 20.619L9.74501 17.9934C7.02234 14.3631 7.38336 9.28331 10.5921 6.07462C11.1855 5.48112 12.1478 5.48112 12.7413 6.07461L17.1548 10.4882C17.8057 11.139 17.8057 12.1943 17.1548 12.8452L15.4529 14.5471C15.1824 14.8176 15.1154 15.2308 15.2864 15.5729C17.2642 19.5284 20.4716 22.7358 24.4271 24.7136C24.7692 24.8846 25.1824 24.8176 25.4529 24.5471L27.1548 22.8452C27.8057 22.1943 28.861 22.1943 29.5118 22.8452Z"/></svg>