<svg xmlns="http://www.w3.org/2000/svg" width="26" height="26" fill="none" viewBox="0 0 26 26"><g clip-path="url(#clip0_1_272)"><path fill="url(#paint0_linear_1_272)" d="M13 26C20.1797 26 26 20.1797 26 13C26 5.8203 20.1797 0 13 0C5.8203 0 0 5.8203 0 13C0 20.1797 5.8203 26 13 26Z"/><path fill="#fff" fill-rule="evenodd" d="M5.88455 12.8628C9.67432 11.2116 12.2014 10.1231 13.4659 9.59717C17.0761 8.09555 17.8263 7.8347 18.3152 7.82609C18.4228 7.8242 18.6632 7.85085 18.819 7.97723C18.9505 8.08395 18.9867 8.22811 19.004 8.32929C19.0213 8.43047 19.0429 8.66096 19.0257 8.84106C18.8301 10.8967 17.9836 15.8851 17.5529 18.1874C17.3707 19.1616 17.0118 19.4882 16.6645 19.5202C15.9095 19.5897 15.3363 19.0213 14.6051 18.542C13.4609 17.792 12.8145 17.3251 11.7039 16.5932C10.4204 15.7474 11.2525 15.2825 11.9839 14.5228C12.1753 14.3239 15.5016 11.2985 15.566 11.024C15.574 10.9897 15.5815 10.8617 15.5055 10.7942C15.4295 10.7266 15.3173 10.7497 15.2363 10.7681C15.1216 10.7941 13.2938 12.0023 9.75286 14.3925C9.23404 14.7487 8.76411 14.9223 8.34306 14.9132C7.8789 14.9032 6.98602 14.6508 6.32227 14.435C5.50814 14.1704 4.86109 14.0304 4.91743 13.581C4.94678 13.3469 5.26915 13.1075 5.88455 12.8628Z" clip-rule="evenodd"/></g><defs><linearGradient id="paint0_linear_1_272" x1="13" x2="13" y1="0" y2="25.8072" gradientUnits="userSpaceOnUse"><stop stop-color="#2ca4e0"/><stop offset="1" stop-color="#0d83bf"/></linearGradient><clipPath id="clip0_1_272"><path fill="#fff" d="M0 0H26V26H0z"/></clipPath></defs></svg>